<svg id="ic_ad_green" xmlns="http://www.w3.org/2000/svg" width="24" height="24" viewBox="0 0 24 24">
  <rect id="Rectangle_1628" data-name="Rectangle 1628" width="24" height="24" fill="none"/>
  <path id="Path_5" data-name="Path 5" d="M16.155,5.206a7,7,0,0,0-9.9,9.9l4.035,4.035a1.29,1.29,0,0,0,1.825.006l0-.006,4.035-4.035A7,7,0,0,0,16.155,5.206ZM14.579,8.647l-3.92,4.146a.589.589,0,0,1-.857,0L7.837,10.679a.586.586,0,1,1,.858-.8l1.542,1.654,3.491-3.692a.586.586,0,0,1,.851.805Z" transform="translate(0.796 0.844)" fill="#00c690"/>
</svg>
