<svg id="ic_class_gray" xmlns="http://www.w3.org/2000/svg" width="24" height="24" viewBox="0 0 24 24">
  <rect id="Rectangle_1625" data-name="Rectangle 1625" width="24" height="24" fill="#fff" opacity="0"/>
  <path id="Path_2" data-name="Path 2" d="M15.31,2.455l-3.232.025a2.337,2.337,0,0,0-4.36.033l-3.232.025A1.526,1.526,0,0,0,2.953,4.045l.085,10.47A1.528,1.528,0,0,0,4.6,16l10.822-.082a1.525,1.525,0,0,0,1.534-1.508l-.084-10.47A1.528,1.528,0,0,0,15.31,2.455ZM9.9,2.5a.748.748,0,1,1-.767.754A.764.764,0,0,1,9.9,2.5ZM7.885,12.452,5.866,10.529a.727.727,0,0,1-.009-1.054.788.788,0,0,1,1.09-.009l1.473,1.4L12.93,6.43a.788.788,0,0,1,1.09-.008.728.728,0,0,1,.009,1.055L8.975,12.443A.788.788,0,0,1,7.885,12.452Z" transform="translate(2.047 3)" fill="#565e6b"/>
</svg>
