<svg id="ic_home_green" xmlns="http://www.w3.org/2000/svg" width="24" height="24" viewBox="0 0 24 24">
  <rect id="Rectangle_1624" data-name="Rectangle 1624" width="24" height="24" fill="none"/>
  <path id="Path_1" data-name="Path 1" d="M8.279,16.5V12.3h3.043v4.2a.806.806,0,0,0,.761.841h2.283a.806.806,0,0,0,.761-.841V10.62H16.42a.424.424,0,0,0,.251-.731L10.31,3.559a.713.713,0,0,0-1.02,0L2.93,9.889a.426.426,0,0,0,.251.731H4.474V16.5a.806.806,0,0,0,.761.841H7.518A.806.806,0,0,0,8.279,16.5Z" transform="translate(2.198 1.655)" fill="#00c690"/>
</svg>
