<svg id="ic_menu_gray" xmlns="http://www.w3.org/2000/svg" width="24" height="24" viewBox="0 0 24 24">
  <path id="Path_921" data-name="Path 921" d="M0,0H24V24H0Z" fill="#fff" opacity="0"/>
  <g id="Group_835" data-name="Group 835" transform="translate(-49 -177)">
    <path id="사각형_859" data-name="사각형 859" d="M3.778,4H13.889a.778.778,0,0,1,.778.778h0a.778.778,0,0,1-.778.778H3.778A.778.778,0,0,1,3,4.778H3A.778.778,0,0,1,3.778,4Z" transform="translate(51 179)" fill="#565e6b" opacity="0.87" style="isolation: isolate"/>
    <path id="사각형_861" data-name="사각형 861" d="M3.778,18H9.222a.778.778,0,0,1,.778.778h0a.778.778,0,0,1-.778.778H3.778A.778.778,0,0,1,3,18.778H3A.778.778,0,0,1,3.778,18Z" transform="translate(51 175.889)" fill="#565e6b" opacity="0.87" style="isolation: isolate"/>
    <path id="사각형_860" data-name="사각형 860" d="M3.778,11H16.222a.778.778,0,0,1,.778.778h0a.778.778,0,0,1-.778.778H3.778A.778.778,0,0,1,3,11.778H3A.778.778,0,0,1,3.778,11Z" transform="translate(51 177.444)" fill="#565e6b" opacity="0.87" style="isolation: isolate"/>
  </g>
</svg>
