<svg id="ic_statistics_green" xmlns="http://www.w3.org/2000/svg" width="24" height="24" viewBox="0 0 24 24">
  <rect id="Rectangle_1629" data-name="Rectangle 1629" width="24" height="24" fill="none"/>
  <path id="Path_6" data-name="Path 6" d="M15.444,3H4.556A1.56,1.56,0,0,0,3,4.556V15.444A1.56,1.56,0,0,0,4.556,17H15.444A1.56,1.56,0,0,0,17,15.444V4.556A1.56,1.56,0,0,0,15.444,3ZM6.889,13.889a.78.78,0,0,1-.778-.778V9.222a.778.778,0,0,1,1.556,0v3.889A.78.78,0,0,1,6.889,13.889Zm3.111,0a.78.78,0,0,1-.778-.778V6.889a.778.778,0,1,1,1.556,0v6.222A.78.78,0,0,1,10,13.889Zm3.111,0a.78.78,0,0,1-.778-.778V11.556a.778.778,0,0,1,1.556,0v1.556A.78.78,0,0,1,13.111,13.889Z" transform="translate(2 2)" fill="#00c690"/>
</svg>
