<svg id="ic_student_green" xmlns="http://www.w3.org/2000/svg" width="24" height="24" viewBox="0 0 24 24">
  <rect id="Rectangle_1626" data-name="Rectangle 1626" width="24" height="24" fill="none"/>
  <path id="Path_3" data-name="Path 3" d="M15.444,2.5H12.193a2.354,2.354,0,0,0-4.387,0H4.556A1.533,1.533,0,0,0,3,4V14.5A1.533,1.533,0,0,0,4.556,16H15.444A1.533,1.533,0,0,0,17,14.5V4A1.533,1.533,0,0,0,15.444,2.5ZM10,2.5a.767.767,0,0,1,.778.75.778.778,0,0,1-1.556,0A.767.767,0,0,1,10,2.5Zm0,3a2.29,2.29,0,0,1,2.333,2.25,2.335,2.335,0,0,1-4.667,0A2.29,2.29,0,0,1,10,5.5Zm4.667,9H5.333V13.45c0-1.5,3.111-2.325,4.667-2.325s4.667.825,4.667,2.325Z" transform="translate(2 4)" fill="#00c690"/>
</svg>
